<svg viewBox="0 0 80 80" xmlns="http://www.w3.org/2000/svg" xmlns:xlink="http://www.w3.org/1999/xlink" width="80.000000" height="80.000000" fill="none">
	<rect id="Icon" width="80.000000" height="80.000000" x="0.000000" y="0.000000" />
	<g id="Group 260">
		<path id="Ellipse 132" d="M40 24C40 32.8366 32.8366 40 24 40C15.1634 40 8 32.8366 8 24C8 15.1634 15.1634 8 24 8C32.8366 8 40 15.1634 40 24Z" fill="rgb(63.75,63.75,63.75)" fill-rule="nonzero" />
		<path id="Ellipse 133" d="M72 24C72 32.8366 64.8366 40 56 40C47.1634 40 40 32.8366 40 24C40 15.1634 47.1634 8 56 8C64.8366 8 72 15.1634 72 24Z" fill="rgb(255,208.89,25.5)" fill-rule="nonzero" />
		<path id="Ellipse 134" d="M72 56C72 64.8366 64.8366 72 56 72C47.1634 72 40 64.8366 40 56C40 47.1634 47.1634 40 56 40C64.8366 40 72 47.1634 72 56Z" fill="rgb(63.75,63.75,63.75)" fill-rule="nonzero" />
		<path id="Ellipse 135" d="M40 56C40 64.8366 32.8366 72 24 72C15.1634 72 8 64.8366 8 56C8 47.1634 15.1634 40 24 40C32.8366 40 40 47.1634 40 56Z" fill="rgb(255,208.89,25.5)" fill-rule="nonzero" />
	</g>
</svg>
