<svg viewBox="0 0 80 80" xmlns="http://www.w3.org/2000/svg" xmlns:xlink="http://www.w3.org/1999/xlink" width="80.000000" height="80.000000" fill="none">
	<rect id="Icon" width="80.000000" height="80.000000" x="0.000000" y="0.000000" />
	<g id="Group">
		<path id="Union" d="M48.7013 27.2154L19.5179 56L11.2987 47.8932C6.90042 43.555 6.90042 36.5214 11.2987 32.1832L32.5183 11.2536C36.9166 6.91545 44.0477 6.91545 48.446 11.2537L48.7013 11.5054C53.0996 15.8436 53.0996 22.8772 48.7013 27.2154Z" fill="rgb(255,208.89,25.5)" fill-rule="nonzero" />
		<path id="Union" d="M31.2987 52.7846L60.4821 24L68.7013 32.1068C73.0996 36.445 73.0996 43.4786 68.7013 47.8168L47.4817 68.7464C43.0834 73.0845 35.9523 73.0845 31.554 68.7463L31.2987 68.4946C26.9004 64.1564 26.9004 57.1228 31.2987 52.7846Z" fill="rgb(63.75,63.75,63.75)" fill-rule="nonzero" />
	</g>
</svg>
