<svg viewBox="0 0 60 60" xmlns="http://www.w3.org/2000/svg" xmlns:xlink="http://www.w3.org/1999/xlink" width="60.000000" height="60.000000" fill="none">
	<rect id="Icon" width="60.000000" height="60.000000" x="0.000000" y="0.000000" />
	<g id="Group 236">
		<path id="Rectangle 79" d="M50.1034 9.8967C55.7244 15.5177 55.1922 25.1632 48.9725 31.3829L37.664 42.6915L17.3086 22.3361L28.6171 11.0276C34.8368 4.80786 44.4824 4.27572 50.1034 9.8967Z" fill="rgb(255,208.89,25.5)" fill-rule="nonzero" />
		<path id="Ellipse 103" d="M26.3554 54L6 33.6447C12.2455 27.3991 21.8653 26.8928 27.4862 32.5138C33.1072 38.1348 32.6009 47.7545 26.3554 54Z" fill="rgb(63.75,63.75,63.75)" fill-rule="nonzero" />
		<path id="Ellipse 104" d="M47.8398 52.8692L27.4844 32.5138C33.7299 26.2683 43.3496 25.762 48.9706 31.383C54.5916 37.004 54.0853 46.6237 47.8398 52.8692Z" fill="rgb(255,208.89,25.5)" fill-rule="nonzero" />
		<path id="Ellipse 105" d="M27.4882 32.5137L7.13281 12.1584C13.3784 5.91282 22.9981 5.40652 28.6191 11.0275C34.24 16.6485 33.7337 26.2682 27.4882 32.5137Z" fill="rgb(255,208.89,25.5)" fill-rule="nonzero" />
	</g>
</svg>
