<svg viewBox="0 0 119.999 120" xmlns="http://www.w3.org/2000/svg" xmlns:xlink="http://www.w3.org/1999/xlink" width="119.999268" height="120.000000" fill="none" customFrame="#000000">
	<g id="Logo">
		<g id="Group">
			<g id="Group">
				<path id="Vector" d="M79.9995 120L79.9995 99.9998C91.0661 99.9998 99.9994 91.0666 99.9994 80L119.999 80C119.999 102.133 102.066 120 79.9995 120Z" fill="rgb(255,208.89,25.5)" fill-rule="nonzero" />
			</g>
			<g id="Group">
				<path id="Vector" d="M79.9997 120L79.9997 100C68.9331 100 59.9998 91.0671 59.9998 80.0005L40 80.0005C40 102.134 57.9332 120 79.9997 120Z" fill="rgb(255,208.89,25.5)" fill-rule="nonzero" />
			</g>
		</g>
		<g id="Group">
			<g id="Group">
				<path id="Vector" d="M0 79.998L19.9998 79.998C19.9998 91.0646 28.9331 99.9979 39.9997 99.9979L39.9997 119.998C17.9332 119.998 0 102.131 0 79.998Z" fill="rgb(255,208.89,25.5)" fill-rule="nonzero" />
			</g>
			<g id="Group">
				<path id="Vector" d="M0 79.9997L19.9998 79.9997C19.9998 68.9331 28.9331 59.9998 39.9997 59.9998L39.9997 40C17.9332 40 0 57.9332 0 79.9997Z" fill="rgb(255,208.89,25.5)" fill-rule="nonzero" />
			</g>
		</g>
		<g id="Group">
			<g id="Group">
				<path id="Vector" d="M39.9997 0L39.9997 19.9998C28.9331 19.9998 19.9998 28.9331 19.9998 39.9997L0 39.9997C0 17.9332 17.9332 0 39.9997 0Z" fill="rgb(255,208.89,25.5)" fill-rule="nonzero" />
			</g>
			<g id="Group">
				<path id="Vector" d="M39.9998 0L39.9998 19.9998C51.0663 19.9998 59.9996 28.9331 59.9996 39.9997L79.9995 39.9997C79.9995 17.9332 62.0663 0 39.9998 0Z" fill="rgb(255,208.89,25.5)" fill-rule="nonzero" />
			</g>
		</g>
		<g id="Group">
			<g id="Group">
				<path id="Vector" d="M119.999 39.9997L99.9989 39.9997C99.9989 28.9331 91.0656 19.9998 79.999 19.9998L79.999 0C102.066 0 119.999 17.9332 119.999 39.9997Z" fill="rgb(255,208.89,25.5)" fill-rule="nonzero" />
			</g>
			<g id="Group">
				<path id="Vector" d="M119.999 39.9995L99.9989 39.9995C99.9989 51.0661 91.0656 59.9994 79.999 59.9994L79.999 79.9992C102.066 79.9992 119.999 62.1327 119.999 39.9995Z" fill="rgb(255,208.89,25.5)" fill-rule="nonzero" />
			</g>
		</g>
	</g>
</svg>
