<svg viewBox="0 0 24 24" xmlns="http://www.w3.org/2000/svg" xmlns:xlink="http://www.w3.org/1999/xlink" width="24.000000" height="24.000000" fill="none">
	<rect id="Icon" width="24.000000" height="24.000000" x="0.000000" y="0.000000" />
	<path id="icon" d="M22 12C22 12.4332 21.8585 12.851 21.6029 13.1725C19.9845 15.15 16.3005 19 12 19C7.69952 19 4.01559 15.15 2.39712 13.1725C2.1415 12.851 2 12.4332 2 12C2 11.5668 2.1415 11.1491 2.39712 10.8275C4.01559 8.85 7.69952 5 12 5C16.3005 5 19.9845 8.85 21.6029 10.8275C21.8585 11.1491 22 11.5668 22 12ZM15.0833 11.9999C15.0833 10.2817 13.7031 8.88879 12.0005 8.88879C10.2979 8.88879 8.91772 10.2817 8.91772 11.9999C8.91772 13.7181 10.2979 15.1109 12.0005 15.1109C13.7031 15.1109 15.0833 13.7181 15.0833 11.9999Z" fill-rule="evenodd" stroke="rgb(255,208.89,25.5)" stroke-linecap="round" stroke-linejoin="round" stroke-width="1.5" />
</svg>
